<svg width="69.491516" height="100.000000" viewBox="0 0 69.4915 100" fill="none" xmlns="http://www.w3.org/2000/svg" xmlns:xlink="http://www.w3.org/1999/xlink">
	<desc>
			Created with Pixso.
	</desc>
	<defs>
		<clipPath id="clip1_768">
			<rect id="figma-1 1" width="69.491524" height="100.000000" fill="white" fill-opacity="0"/>
		</clipPath>
	</defs>
	<rect id="figma-1 1" width="69.491524" height="100.000000" fill="#FFFFFF" fill-opacity="0"/>
	<g clip-path="url(#clip1_768)">
		<path id="path0 fill" d="M17.37 100C26.96 100 34.74 92.53 34.74 83.33L34.74 66.66L17.37 66.66C7.78 66.66 0 74.13 0 83.33C0 92.53 7.78 100 17.37 100Z" fill="#0ACF83" fill-opacity="1.000000" fill-rule="nonzero"/>
		<path id="path1 fill" d="M0 49.99C0 40.79 7.78 33.33 17.37 33.33L34.74 33.33L34.74 66.66L17.37 66.66C7.78 66.66 0 59.19 0 49.99Z" fill="#A259FF" fill-opacity="1.000000" fill-rule="nonzero"/>
		<path id="path1 fill 1" d="M0 16.66C0 7.46 7.78 0 17.37 0L34.74 0L34.74 33.33L17.37 33.33C7.78 33.33 0 25.86 0 16.66Z" fill="#F24E1E" fill-opacity="1.000000" fill-rule="nonzero"/>
		<path id="path2 fill" d="M34.74 0L52.11 0C61.7 0 69.48 7.46 69.48 16.66C69.48 25.86 61.7 33.33 52.11 33.33L34.74 33.33L34.74 0Z" fill="#FF7262" fill-opacity="1.000000" fill-rule="nonzero"/>
		<path id="path3 fill" d="M69.48 49.99C69.48 59.19 61.7 66.66 52.11 66.66C42.52 66.66 34.74 59.19 34.74 49.99C34.74 40.79 42.52 33.33 52.11 33.33C61.7 33.33 69.48 40.79 69.48 49.99Z" fill="#1ABCFE" fill-opacity="1.000000" fill-rule="nonzero"/>
	</g>
</svg>
