<svg width="96.241974" height="100.000000" viewBox="0 0 96.242 100" fill="none" xmlns="http://www.w3.org/2000/svg" xmlns:xlink="http://www.w3.org/1999/xlink">
	<desc>
			Created with Pixso.
	</desc>
	<defs/>
	<path id="bg" d="M96.24 83.33C96.24 92.5 89.02 100 80.2 100L16.04 100C7.21 100 0 92.5 0 83.33L0 16.66C0 7.5 7.21 0 16.04 0L80.2 0C89.02 0 96.24 7.5 96.24 16.66L96.24 83.33Z" fill="#563D7C" fill-opacity="1.000000" fill-rule="nonzero"/>
	<path id="Vector" d="M26.15 21.73L53.43 21.73C58.46 21.73 62.5 22.92 65.54 25.32C68.58 27.72 70.1 31.34 70.1 36.19C70.1 39.13 69.41 41.65 68.02 43.74C66.64 45.83 64.66 47.46 62.08 48.61L62.08 48.77C65.54 49.54 68.17 51.24 69.94 53.87C71.72 56.52 72.62 59.82 72.62 63.8C72.62 66.09 72.22 68.23 71.44 70.21C70.65 72.2 69.42 73.92 67.74 75.35C66.06 76.79 63.92 77.94 61.29 78.79C58.67 79.64 55.55 80.06 51.94 80.06L26.15 80.06L26.15 21.73ZM35.98 46.16L52.02 46.16C54.37 46.16 56.34 45.47 57.91 44.06C59.49 42.66 60.27 40.67 60.27 38.05C60.27 35.11 59.56 33.03 58.15 31.84C56.73 30.65 54.69 30.04 52.02 30.04L35.98 30.04L35.98 46.16ZM35.98 71.73L53.35 71.73C56.34 71.73 58.67 70.93 60.3 69.31C61.95 67.71 62.79 65.42 62.79 62.48C62.79 59.59 61.97 57.38 60.3 55.81C58.64 54.24 56.34 53.49 53.35 53.49L35.98 53.49L35.98 71.73Z" fill="#FFFFFF" fill-opacity="1.000000" fill-rule="nonzero"/>
</svg>
