<svg width="102.980042" height="100.000000" viewBox="0 0 102.98 100" fill="none" xmlns="http://www.w3.org/2000/svg" xmlns:xlink="http://www.w3.org/1999/xlink">
	<desc>
			Created with Pixso.
	</desc>
	<defs/>
	<path d="M94.85 77.34C89.25 77.2 84.9 77.75 81.26 79.28C80.21 79.69 78.53 79.69 78.39 81.01C78.95 81.57 79.02 82.47 79.51 83.23C80.35 84.61 81.82 86.48 83.15 87.45C84.62 88.56 86.1 89.67 87.64 90.64C90.37 92.3 93.45 93.27 96.11 94.94C97.65 95.91 99.19 97.15 100.73 98.19C101.5 98.75 101.99 99.65 102.98 100L102.98 99.79C102.49 99.16 102.35 98.26 101.86 97.57C101.16 96.88 100.45 96.25 99.75 95.56C97.72 92.86 95.2 90.5 92.47 88.56C90.23 87.04 85.33 84.96 84.41 82.4C84.41 82.4 84.34 82.33 84.27 82.26C85.82 82.12 87.64 81.57 89.11 81.15C91.49 80.53 93.66 80.66 96.11 80.04C97.23 79.76 98.35 79.42 99.47 79.07L99.47 78.45C98.21 77.2 97.3 75.54 95.97 74.36C92.4 71.31 88.48 68.33 84.41 65.84C82.24 64.45 79.44 63.55 77.13 62.37C76.29 61.96 74.89 61.75 74.4 61.06C73.14 59.53 72.44 57.52 71.53 55.72C69.5 51.91 67.53 47.68 65.78 43.67C64.52 40.96 63.75 38.26 62.21 35.77C55 23.99 47.15 16.85 35.11 9.85C32.51 8.4 29.43 7.78 26.14 7.01C24.39 6.94 22.64 6.81 20.89 6.74C19.77 6.25 18.65 4.93 17.67 4.31C13.68 1.82 3.38 -3.59 0.44 3.55C-1.45 8.05 3.24 12.49 4.85 14.77C6.04 16.37 7.58 18.17 8.42 19.97C8.91 21.15 9.05 22.39 9.54 23.64C10.66 26.69 11.71 30.09 13.18 32.93C13.95 34.38 14.8 35.91 15.78 37.22C16.34 37.98 17.32 38.33 17.53 39.58C16.55 40.96 16.48 43.04 15.92 44.77C13.39 52.6 14.37 62.3 17.95 68.05C19.07 69.79 21.73 73.6 25.3 72.14C28.45 70.89 27.75 66.95 28.66 63.48C28.87 62.65 28.73 62.1 29.15 61.54C29.15 61.61 29.15 61.68 29.15 61.68C30.13 63.62 31.11 65.49 32.02 67.43C34.2 70.83 37.98 74.36 41.13 76.72C42.81 77.96 44.14 80.11 46.24 80.87L46.24 80.66L46.1 80.66C45.68 80.04 45.05 79.76 44.49 79.28C43.23 78.03 41.83 76.51 40.85 75.12C37.91 71.24 35.32 66.95 33.01 62.51C31.88 60.36 30.9 58.01 29.99 55.86C29.57 55.03 29.57 53.78 28.87 53.37C27.82 54.89 26.28 56.21 25.51 58.08C24.18 61.06 24.04 64.73 23.55 68.54C23.27 68.61 23.41 68.54 23.27 68.68C21.03 68.12 20.26 65.84 19.42 63.9C17.32 58.98 16.97 51.08 18.79 45.4C19.28 43.94 21.38 39.37 20.54 37.98C20.12 36.67 18.72 35.91 17.95 34.87C17.04 33.55 16.06 31.89 15.43 30.43C13.74 26.55 12.9 22.26 11.08 18.38C10.24 16.57 8.77 14.7 7.58 13.04C6.25 11.17 4.78 9.85 3.73 7.64C3.38 6.87 2.89 5.63 3.45 4.8C3.59 4.24 3.87 4.03 4.43 3.9C5.34 3.13 7.93 4.1 8.84 4.52C11.43 5.56 13.6 6.53 15.78 7.98C16.76 8.68 17.81 9.99 19.07 10.34L20.54 10.34C22.78 10.82 25.3 10.48 27.4 11.1C31.11 12.28 34.48 14.01 37.49 15.88C46.66 21.63 54.23 29.81 59.34 39.58C60.18 41.17 60.53 42.63 61.3 44.29C62.77 47.68 64.59 51.15 66.06 54.47C67.53 57.73 68.94 61.06 71.04 63.76C72.09 65.21 76.29 65.98 78.18 66.74C79.58 67.36 81.75 67.92 83.01 68.68C85.39 70.13 87.78 71.8 90.02 73.39C91.14 74.22 94.64 75.95 94.85 77.34L94.85 77.34Z" fill="#00546B" fill-opacity="1.000000" fill-rule="nonzero"/>
</svg>
