<svg width="100.000000" height="100.000000" viewBox="0 0 100 100" fill="none" xmlns="http://www.w3.org/2000/svg" xmlns:xlink="http://www.w3.org/1999/xlink">
	<desc>
			Created with Pixso.
	</desc>
	<defs/>
	<path id="Vector" d="M0 50L0 100L50 100L100 100L100 50L100 0L50 0L0 0L0 50Z" fill="#007ACC" fill-opacity="1.000000" fill-rule="nonzero"/>
	<path id="Vector" d="M22.11 50.33L22.08 54.42L28.58 54.42L35.09 54.42L35.09 72.91L35.09 91.41L39.7 91.41L44.3 91.41L44.3 72.91L44.3 54.42L50.81 54.42L57.31 54.42L57.31 50.41C57.31 48.18 57.27 46.33 57.2 46.28C57.16 46.22 49.24 46.18 39.63 46.2L22.16 46.25L22.11 50.33Z" fill="#FFFFFF" fill-opacity="1.000000" fill-rule="nonzero"/>
	<path id="Vector" d="M80.69 46.13C83.23 46.77 85.16 47.89 86.94 49.73C87.86 50.72 89.23 52.51 89.34 52.94C89.37 53.07 85.02 55.99 82.38 57.62C82.29 57.69 81.91 57.27 81.48 56.64C80.19 54.77 78.84 53.96 76.78 53.81C73.75 53.61 71.8 55.19 71.81 57.85C71.81 58.62 71.92 59.08 72.24 59.72C72.91 61.1 74.15 61.92 78.03 63.61C85.19 66.69 88.26 68.72 90.16 71.61C92.29 74.83 92.76 79.97 91.32 83.8C89.73 87.96 85.8 90.78 80.26 91.72C78.54 92.02 74.48 91.97 72.64 91.64C68.62 90.92 64.81 88.94 62.46 86.34C61.54 85.32 59.75 82.67 59.86 82.48C59.91 82.42 60.32 82.16 60.78 81.89C61.23 81.64 62.91 80.67 64.5 79.75L67.37 78.08L67.97 78.97C68.81 80.26 70.65 82.02 71.76 82.61C74.96 84.29 79.34 84.05 81.5 82.12C82.42 81.27 82.8 80.4 82.8 79.12C82.8 77.96 82.65 77.45 82.05 76.58C81.27 75.46 79.69 74.53 75.18 72.58C70.02 70.35 67.8 68.97 65.76 66.78C64.59 65.51 63.48 63.48 63.02 61.78C62.64 60.37 62.54 56.83 62.84 55.4C63.91 50.42 67.67 46.94 73.1 45.91C74.86 45.58 78.96 45.7 80.69 46.13Z" fill="#FFFFFF" fill-opacity="1.000000" fill-rule="nonzero"/>
</svg>
